<?xml version="1.0" encoding="UTF-8"?> <svg xmlns="http://www.w3.org/2000/svg" width="530" height="174" viewBox="0 0 530 174" fill="none"><g clip-path="url(#clip0)"><path d="M375.26 89.3V16.19H390.41C401.35 16.19 409.287 17.0667 414.22 18.82C421.062 21.1234 426.92 25.6779 430.84 31.74C434.84 37.9067 436.84 45.24 436.84 53.74C436.962 60.4642 435.325 67.1036 432.09 73C429.268 78.2223 424.982 82.5075 419.76 85.33C414.7 87.9967 407.617 89.33 398.51 89.33L375.26 89.3ZM382.26 82.36H390.71C400.81 82.36 407.81 81.73 411.71 80.47C417.021 78.8313 421.609 75.4218 424.71 70.81C427.971 65.7311 429.617 59.783 429.43 53.75C429.611 47.3404 427.82 41.0297 424.3 35.67C420.887 30.6741 415.825 27.0384 410 25.4C405.433 24 397.897 23.3033 387.39 23.31H382.22L382.26 82.36ZM491 14.31C502.08 14.31 511.333 18.0067 518.76 25.4C522.411 28.932 525.294 33.1797 527.228 37.8772C529.163 42.5748 530.106 47.621 530 52.7C530.09 57.7628 529.142 62.7904 527.216 67.4733C525.29 72.1562 522.426 76.3954 518.8 79.93C515.268 83.5575 511.028 86.4214 506.345 88.3444C501.661 90.2675 496.632 91.2088 491.57 91.11C486.479 91.2244 481.419 90.298 476.699 88.3876C471.978 86.4772 467.698 83.623 464.12 80C460.499 76.5098 457.636 72.3112 455.709 67.666C453.782 63.0207 452.833 58.0283 452.92 53C452.878 46.1706 454.629 39.4498 458 33.51C461.298 27.6686 466.095 22.8133 471.896 19.4451C477.697 16.077 484.292 14.3181 491 14.35V14.31ZM491.33 21.43C485.905 21.4916 480.591 22.9665 475.91 25.7092C471.23 28.452 467.345 32.3677 464.64 37.07C461.886 41.9478 460.474 47.4688 460.55 53.07C460.464 57.1578 461.218 61.2198 462.767 65.0041C464.315 68.7885 466.624 72.2145 469.55 75.07C472.373 77.9751 475.761 80.2721 479.505 81.8199C483.249 83.3676 487.269 84.1333 491.32 84.07C496.843 84.1074 502.276 82.6825 507.07 79.94C511.807 77.2893 515.721 73.3826 518.38 68.65C521.074 63.7956 522.453 58.3214 522.38 52.77C522.469 47.2611 521.088 41.828 518.38 37.03C515.68 32.2922 511.747 28.3736 507 25.69C502.247 22.9186 496.842 21.462 491.34 21.47L491.33 21.43ZM276 29.73L270.22 34.15C267.202 30.149 263.278 26.9207 258.77 24.73C254.155 22.5515 249.103 21.4537 244 21.52C238.328 21.4801 232.744 22.9319 227.81 25.73C223.021 28.375 219.039 32.2701 216.29 37C213.523 41.8513 212.107 47.3557 212.19 52.94C212.088 57.0912 212.851 61.2183 214.43 65.059C216.008 68.8997 218.368 72.3701 221.36 75.25C227.467 81.25 235.177 84.25 244.49 84.25C254.743 84.25 263.31 80.25 270.19 72.25L276 76.54C272.36 81.1634 267.671 84.8521 262.32 87.3C256.586 89.8927 250.352 91.1901 244.06 91.1C231.267 91.1 221.177 86.86 213.79 78.38C207.607 71.1498 204.313 61.8906 204.54 52.38C204.432 47.3443 205.377 42.3415 207.314 37.6921C209.251 33.0426 212.138 28.8491 215.79 25.38C223.303 18.0467 232.707 14.38 244 14.38C250.396 14.2886 256.727 15.6746 262.5 18.43C267.869 21.0298 272.508 24.9231 276 29.76V29.73ZM356.48 60.16V16.21H349.39V60.21C349.482 63.3869 348.936 66.55 347.784 69.512C346.632 72.4741 344.897 75.1749 342.683 77.4546C340.468 79.7343 337.819 81.5466 334.892 82.7841C331.964 84.0216 328.818 84.6593 325.64 84.6593C322.462 84.6593 319.316 84.0216 316.389 82.7841C313.461 81.5466 310.812 79.7343 308.597 77.4546C306.383 75.1749 304.648 72.4741 303.496 69.512C302.344 66.55 301.798 63.3869 301.89 60.21V16.25H294.82V60.19C294.82 68.3666 298.068 76.2084 303.85 81.9901C309.632 87.7719 317.473 91.02 325.65 91.02C333.827 91.02 341.668 87.7719 347.45 81.9901C353.232 76.2084 356.48 68.3666 356.48 60.19V60.16Z" fill="white"></path><path d="M231.28 151.2C228.922 153.325 225.854 154.491 222.68 154.47C220.837 154.468 219.024 154.012 217.4 153.141C215.776 152.271 214.392 151.013 213.37 149.48C212.348 147.946 211.721 146.185 211.543 144.351C211.365 142.517 211.643 140.667 212.351 138.966C213.059 137.265 214.176 135.765 215.602 134.599C217.029 133.433 218.721 132.636 220.529 132.281C222.337 131.925 224.204 132.021 225.966 132.56C227.728 133.099 229.33 134.064 230.63 135.37L232.05 136.8L237.05 131.68L235.63 130.28C233.495 128.147 230.867 126.574 227.979 125.699C225.09 124.824 222.031 124.674 219.071 125.263C216.112 125.852 213.343 127.162 211.01 129.076C208.677 130.99 206.851 133.45 205.695 136.237C204.539 139.025 204.088 142.055 204.382 145.058C204.676 148.061 205.706 150.946 207.38 153.457C209.055 155.968 211.322 158.027 213.982 159.452C216.642 160.878 219.612 161.626 222.63 161.63C227.683 161.657 232.55 159.725 236.21 156.24L237.73 154.78L232.64 150L231.28 151.2Z" fill="white"></path><path d="M271.3 124.92C267.668 124.918 264.117 125.993 261.096 128.01C258.075 130.027 255.72 132.894 254.329 136.249C252.939 139.605 252.574 143.297 253.282 146.859C253.99 150.422 255.739 153.694 258.307 156.262C260.876 158.831 264.148 160.58 267.711 161.288C271.273 161.996 274.965 161.631 278.321 160.24C281.676 158.85 284.543 156.495 286.56 153.474C288.577 150.453 289.652 146.902 289.65 143.27C289.645 138.405 287.71 133.741 284.269 130.3C280.829 126.86 276.165 124.925 271.3 124.92ZM271.3 154.47C269.085 154.47 266.919 153.813 265.078 152.582C263.236 151.352 261.8 149.603 260.952 147.556C260.105 145.51 259.883 143.258 260.315 141.085C260.747 138.912 261.814 136.917 263.38 135.35C264.947 133.784 266.942 132.717 269.115 132.285C271.288 131.853 273.539 132.075 275.586 132.923C277.633 133.77 279.382 135.206 280.612 137.048C281.843 138.889 282.5 141.055 282.5 143.27C282.497 146.24 281.316 149.087 279.217 151.187C277.117 153.286 274.27 154.467 271.3 154.47V154.47Z" fill="white"></path><path d="M334.28 125.46L326.15 144.64L317.98 125.46H310.99L307.89 161.08H315.06L316.82 140.99L322.93 155.43H329.32L335.47 140.98L337.2 161.08H344.41L341.31 125.46H334.28Z" fill="white"></path><path d="M379.51 125.46H364.69V161.08H371.84V148.88H379.51C382.616 148.88 385.594 147.646 387.79 145.45C389.986 143.254 391.22 140.276 391.22 137.17C391.22 134.064 389.986 131.086 387.79 128.89C385.594 126.694 382.616 125.46 379.51 125.46V125.46ZM371.84 132.61H379.51C380.719 132.61 381.879 133.09 382.734 133.946C383.59 134.801 384.07 135.961 384.07 137.17C384.07 138.379 383.59 139.539 382.734 140.394C381.879 141.25 380.719 141.73 379.51 141.73H371.84V132.61Z" fill="white"></path><path d="M431.92 147C431.92 148.989 431.13 150.897 429.723 152.303C428.317 153.71 426.409 154.5 424.42 154.5C422.431 154.5 420.523 153.71 419.117 152.303C417.71 150.897 416.92 148.989 416.92 147V125.46H409.77V147C409.719 148.955 410.06 150.901 410.773 152.723C411.486 154.544 412.556 156.205 413.921 157.606C415.286 159.007 416.918 160.12 418.72 160.881C420.523 161.641 422.459 162.033 424.415 162.033C426.371 162.033 428.307 161.641 430.109 160.881C431.912 160.12 433.544 159.007 434.908 157.606C436.273 156.205 437.344 154.544 438.057 152.723C438.77 150.901 439.111 148.955 439.06 147V125.46H431.91L431.92 147Z" fill="white"></path><path d="M456.86 132.61H468.38V161.08H475.53V132.61H487.06V125.46H456.86V132.61Z" fill="white"></path><path d="M529.98 132.61V125.46H505.2V161.08H529.98V153.93H512.36V146.85H525.46V139.7H512.36V132.61H529.98Z" fill="white"></path><path d="M86.74 0C69.5845 0 52.8142 5.08721 38.5499 14.6183C24.2856 24.1494 13.1679 37.6964 6.60273 53.546C0.0375829 69.3957 -1.68016 86.8362 1.66672 103.662C5.01361 120.488 13.2748 135.944 25.4056 148.074C37.5364 160.205 52.992 168.466 69.8179 171.813C86.6438 175.16 104.084 173.442 119.934 166.877C135.784 160.312 149.331 149.194 158.862 134.93C168.393 120.666 173.48 103.896 173.48 86.74C173.477 63.7359 164.338 41.6748 148.072 25.4085C131.805 9.14215 109.744 0.00265161 86.74 0V0ZM82.51 141.58V166C62.2085 164.93 43.0913 156.112 29.0994 141.363C15.1075 126.615 7.30754 107.06 7.30754 86.73C7.30754 66.4003 15.1075 46.8455 29.0994 32.0968C43.0913 17.3481 62.2085 8.52988 82.51 7.46V32.85H89.87V7.44C110.347 8.26925 129.71 16.9872 143.906 31.7691C158.101 46.551 166.029 66.2508 166.029 86.745C166.029 107.239 158.101 126.939 143.906 141.721C129.71 156.503 110.347 165.221 89.87 166.05V141.58H82.51Z" fill="white"></path><path d="M86.26 122.92C83.8982 122.918 81.5888 123.616 79.6234 124.926C77.658 126.235 76.1248 128.098 75.2173 130.279C74.3099 132.459 74.0689 134.859 74.5248 137.177C74.9808 139.494 76.1131 141.624 77.779 143.299C79.4448 144.973 81.5694 146.116 83.8844 146.583C86.1995 147.051 88.6011 146.822 90.7862 145.926C92.9712 145.029 94.8415 143.505 96.1611 141.546C97.4806 139.588 98.1901 137.282 98.1999 134.92C98.2065 133.347 97.9026 131.789 97.3057 130.334C96.7087 128.879 95.8304 127.556 94.7211 126.441C93.6119 125.326 92.2935 124.442 90.8415 123.837C89.3896 123.233 87.8326 122.921 86.26 122.92ZM86.26 139.45C85.3513 139.452 84.4625 139.184 83.7061 138.681C82.9498 138.177 82.3599 137.46 82.0113 136.621C81.6626 135.782 81.5709 134.858 81.7477 133.967C81.9245 133.076 82.3618 132.257 83.0043 131.614C83.6469 130.972 84.4656 130.535 85.3569 130.358C86.2482 130.181 87.172 130.273 88.0111 130.621C88.8502 130.97 89.567 131.56 90.0706 132.316C90.5742 133.073 90.8419 133.961 90.8399 134.87C90.8399 136.085 90.3574 137.25 89.4985 138.109C88.6396 138.967 87.4746 139.45 86.26 139.45V139.45Z" fill="white"></path><path d="M86.26 29C83.8953 28.998 81.5831 29.6977 79.6162 31.0105C77.6493 32.3232 76.1161 34.1901 75.2106 36.3746C74.3052 38.5592 74.0683 40.9633 74.5299 43.2826C74.9915 45.6018 76.1308 47.732 77.8037 49.4035C79.4765 51.0749 81.6077 52.2124 83.9273 52.6721C86.247 53.1317 88.6509 52.8928 90.8347 51.9856C93.0185 51.0783 94.884 49.5436 96.1951 47.5755C97.5063 45.6075 98.204 43.2948 98.2 40.93C98.1974 37.7651 96.9383 34.7306 94.6994 32.4936C92.4605 30.2566 89.425 29 86.26 29V29ZM86.26 45.53C85.3518 45.532 84.4634 45.2645 83.7073 44.7613C82.9511 44.2582 82.3612 43.542 82.0123 42.7035C81.6634 41.8649 81.571 40.9417 81.747 40.0507C81.923 39.1597 82.3594 38.3409 83.0009 37.6979C83.6424 37.055 84.4602 36.6169 85.3509 36.4389C86.2415 36.261 87.1649 36.3513 88.0042 36.6984C88.8435 37.0456 89.561 37.6339 90.0658 38.3889C90.5706 39.1439 90.84 40.0318 90.84 40.94C90.84 41.5415 90.7216 42.137 90.4914 42.6927C90.2612 43.2484 89.9239 43.7533 89.4986 44.1786C89.0733 44.6038 88.5684 44.9412 88.0127 45.1714C87.4571 45.4015 86.8615 45.52 86.26 45.52V45.53Z" fill="white"></path><path d="M54.16 97.21C51.7982 97.208 49.4888 97.9059 47.5234 99.2156C45.558 100.525 44.0248 102.388 43.1174 104.568C42.2099 106.749 41.9689 109.149 42.4249 111.467C42.8808 113.784 44.0132 115.914 45.679 117.589C47.3448 119.263 49.4694 120.406 51.7845 120.873C54.0995 121.341 56.5012 121.112 58.6862 120.216C60.8712 119.319 62.7416 117.795 64.0611 115.836C65.3806 113.878 66.0901 111.572 66.1 109.21C66.1066 107.637 65.8027 106.079 65.2057 104.624C64.6087 103.169 63.7304 101.846 62.6212 100.731C61.5119 99.6164 60.1935 98.7315 58.7415 98.1272C57.2896 97.523 55.7326 97.2113 54.16 97.21V97.21ZM54.16 113.75C53.2522 113.75 52.3647 113.481 51.6099 112.976C50.8551 112.472 50.2668 111.755 49.9194 110.916C49.572 110.078 49.4811 109.155 49.6582 108.264C49.8353 107.374 50.2724 106.556 50.9144 105.914C51.5563 105.272 52.3741 104.835 53.2645 104.658C54.1549 104.481 55.0778 104.572 55.9165 104.919C56.7552 105.267 57.4721 105.855 57.9764 106.61C58.4808 107.365 58.75 108.252 58.75 109.16C58.7473 110.377 58.2629 111.542 57.4027 112.403C56.5425 113.263 55.3765 113.747 54.16 113.75V113.75Z" fill="white"></path><path d="M89.9201 48.6H82.5901V126.02H89.9201V48.6Z" fill="white"></path><path d="M57.83 101.21H50.49V73.41C50.49 66.72 53.33 61.14 59.41 55.85C64.57 51.37 75 43 75.45 42.66L80 48.38C79.89 48.47 69.23 57 64.19 61.38C59.65 65.33 57.8 68.82 57.8 73.38L57.83 101.21Z" fill="white"></path><path d="M118.47 80.31C120.829 80.3001 123.133 79.5921 125.09 78.2752C127.048 76.9584 128.572 75.0915 129.47 72.91C130.368 70.7285 130.601 68.3299 130.138 66.0165C129.675 63.7031 128.538 61.5784 126.87 59.9102C125.202 58.242 123.077 57.1049 120.764 56.6422C118.45 56.1795 116.052 56.4119 113.87 57.3102C111.689 58.2084 109.822 59.7323 108.505 61.6898C107.188 63.6473 106.48 65.9508 106.47 68.31C106.463 69.8877 106.769 71.4511 107.37 72.91C107.971 74.3689 108.854 75.6944 109.97 76.81C111.086 77.9256 112.411 78.8093 113.87 79.41C115.329 80.0107 116.892 80.3166 118.47 80.31V80.31ZM118.47 63.78C119.378 63.78 120.266 64.0494 121.021 64.5542C121.776 65.059 122.365 65.7765 122.712 66.6158C123.059 67.4551 123.149 68.3785 122.971 69.2691C122.793 70.1598 122.355 70.9776 121.712 71.6192C121.069 72.2607 120.25 72.697 119.359 72.873C118.468 73.049 117.545 72.9567 116.707 72.6077C115.868 72.2588 115.152 71.6689 114.649 70.9128C114.146 70.1566 113.878 69.2682 113.88 68.36C113.883 67.1444 114.367 65.9795 115.228 65.1208C116.088 64.2622 117.254 63.78 118.47 63.78V63.78Z" fill="white"></path><path d="M114.8 76.31H122.13V104.11C122.13 110.8 119.3 116.38 113.21 121.68C108.06 126.16 97.6199 134.51 97.2099 134.87L92.6299 129.14C92.7399 129.06 103.39 120.53 108.43 116.14C112.98 112.14 114.83 108.71 114.83 104.14L114.8 76.31Z" fill="white"></path></g><defs><clipPath id="clip0"><rect width="529.98" height="173.48" fill="white"></rect></clipPath></defs></svg> 